<?xml version="1.0" encoding="UTF-8" standalone="no"?>
<!-- Created with Inkscape (http://www.inkscape.org/) -->

<svg
   width="250"
   height="122"
   viewBox="0 0 66.145831 32.279167"
   version="1.1"
   id="svg5"
   inkscape:version="1.2.2 (b0a8486541, 2022-12-01)"
   sodipodi:docname="logoab.svg"
   inkscape:export-filename="logoab.png"
   inkscape:export-xdpi="11.667056"
   inkscape:export-ydpi="11.667056"
   xmlns:inkscape="http://www.inkscape.org/namespaces/inkscape"
   xmlns:sodipodi="http://sodipodi.sourceforge.net/DTD/sodipodi-0.dtd"
   xmlns:xlink="http://www.w3.org/1999/xlink"
   xmlns="http://www.w3.org/2000/svg"
   xmlns:svg="http://www.w3.org/2000/svg">
  <sodipodi:namedview
     id="namedview7"
     pagecolor="#ffffff"
     bordercolor="#000000"
     borderopacity="0.25"
     inkscape:showpageshadow="false"
     inkscape:pageopacity="0.0"
     inkscape:pagecheckerboard="0"
     inkscape:deskcolor="#d1d1d1"
     inkscape:document-units="px"
     showgrid="false"
     showborder="false"
     borderlayer="true"
     inkscape:lockguides="false"
     inkscape:zoom="5.096"
     inkscape:cx="125"
     inkscape:cy="73.292779"
     inkscape:window-width="1868"
     inkscape:window-height="1011"
     inkscape:window-x="0"
     inkscape:window-y="0"
     inkscape:window-maximized="1"
     inkscape:current-layer="g7466">
    <sodipodi:guide
       position="0,32.279167"
       orientation="0,200"
       id="guide9"
       inkscape:locked="false" />
    <sodipodi:guide
       position="66.145832,12.054359"
       orientation="200,0"
       id="guide11"
       inkscape:locked="false" />
    <sodipodi:guide
       position="52.916666,-20.637499"
       orientation="0,-200"
       id="guide13"
       inkscape:locked="false" />
    <sodipodi:guide
       position="0,-20.637499"
       orientation="-200,0"
       id="guide15"
       inkscape:locked="false" />
  </sodipodi:namedview>
  <defs
     id="defs2">
    <linearGradient
       id="linearGradient11168">
      <stop
         style="stop-color:#5614b0;stop-opacity:1;"
         offset="0"
         id="stop11164" />
      <stop
         style="stop-color:#dbd65c;stop-opacity:1"
         offset="1"
         id="stop11166" />
    </linearGradient>
    <linearGradient
       id="linearGradient3199">
      <stop
         style="stop-color:#5614b0;stop-opacity:1;"
         offset="0"
         id="stop9680" />
      <stop
         style="stop-color:#dbd65c;stop-opacity:1"
         offset="1"
         id="stop9682" />
    </linearGradient>
    <linearGradient
       id="linearGradient3199-1">
      <stop
         style="stop-color:#ed213a;stop-opacity:1;"
         offset="0"
         id="stop3195" />
      <stop
         style="stop-color:#93291e;stop-opacity:1;"
         offset="1"
         id="stop3197" />
    </linearGradient>
    <linearGradient
       inkscape:collect="always"
       xlink:href="#linearGradient3199"
       id="linearGradient3201"
       x1="6.6424971"
       y1="19.87072"
       x2="32.674767"
       y2="19.385426"
       gradientUnits="userSpaceOnUse" />
    <linearGradient
       inkscape:collect="always"
       xlink:href="#linearGradient11168"
       id="linearGradient7474"
       x1="0.25412863"
       y1="25.68741"
       x2="54.751312"
       y2="25.68741"
       gradientUnits="userSpaceOnUse" />
    <linearGradient
       inkscape:collect="always"
       xlink:href="#linearGradient11168"
       id="linearGradient11270"
       gradientUnits="userSpaceOnUse"
       x1="30.267872"
       y1="39.154472"
       x2="30.219107"
       y2="16.465414"
       gradientTransform="translate(0,-9.8864545)" />
    <linearGradient
       inkscape:collect="always"
       xlink:href="#linearGradient11168"
       id="linearGradient1622"
       gradientUnits="userSpaceOnUse"
       x1="0.25412863"
       y1="25.68741"
       x2="54.751312"
       y2="25.68741" />
    <linearGradient
       inkscape:collect="always"
       xlink:href="#linearGradient11168"
       id="linearGradient1720"
       gradientUnits="userSpaceOnUse"
       x1="16.256712"
       y1="29.268017"
       x2="16.271294"
       y2="2.3339031" />
    <linearGradient
       inkscape:collect="always"
       xlink:href="#linearGradient11168"
       id="linearGradient1722"
       gradientUnits="userSpaceOnUse"
       x1="9.2360992"
       y1="29.06109"
       x2="9.8499184"
       y2="2.3339031" />
  </defs>
  <g
     inkscape:label="Camada 1"
     inkscape:groupmode="layer"
     id="layer1">
    <g
       id="g1285"
       transform="matrix(1.1984492,0,0,1.1984492,-5.2444321e-6,-2.7970642)">
      <g
         id="g1005">
        <g
           id="g7466"
           style="fill:url(#linearGradient7474);fill-opacity:1">
          <g
             id="g1620"
             style="fill-opacity:1.0;fill:url(#linearGradient1622)">
            <path
               d="m 13.239553,26.302271 q -1.722204,1.512901 -3.3238557,2.13586 -1.584428,0.62296 -3.4099653,0.62296 -3.0138582,0 -4.6327308,-1.512901 -1.61887256,-1.5307 -1.61887256,-3.897945 0,-1.388309 0.60277171,-2.527435 0.61999385,-1.156924 1.60165055,-1.851078 0.9988789,-0.694154 2.2388663,-1.050131 0.9127686,-0.249184 2.7555282,-0.480569 3.7544066,-0.462769 5.5282776,-1.103528 0.01722,-0.658556 0.01722,-0.836545 0,-1.957871 -0.878323,-2.758819 -1.188322,-1.085729 -3.530521,-1.085729 -2.1871992,0 -3.2377441,0.800948 -1.0333233,0.783148 -1.5327628,2.794416 L 0.78801218,15.124603 Q 1.2013414,13.113335 2.1485541,11.885216 3.0957667,10.639297 4.8868597,9.9807401 6.6779531,9.3043853 9.0373734,9.3043853 q 2.3421996,0 3.8060736,0.5695625 1.463874,0.5695622 2.152755,1.4417052 0.688882,0.854344 0.964435,2.171458 0.154999,0.818747 0.154999,2.954606 v 4.27172 q 0,4.467507 0.189442,5.66003 0.206664,1.174723 0.792214,2.260452 H 13.859547 Q 13.37733,27.637183 13.239553,26.302271 Z m -0.25833,-7.155131 q -1.687761,0.711953 -5.0632827,1.210321 -1.9116478,0.284781 -2.7038612,0.640757 -0.7922146,0.355977 -1.2227659,1.050132 -0.4305512,0.676355 -0.4305512,1.512901 0,1.281516 0.9299906,2.135859 0.9472121,0.854344 2.7555283,0.854344 1.7910925,0 3.1860781,-0.800947 1.394986,-0.818746 2.049424,-2.224854 0.49944,-1.085729 0.49944,-3.203789 z"
               style="font-size:27.1826px;line-height:0;font-family:Arial;-inkscape-font-specification:Arial;letter-spacing:-2.9186px;fill:url(#linearGradient1722);fill-opacity:1;stroke-width:0.480219"
               id="path5483" />
            <path
               d="M 19.992423,28.633919 H 17.11634 V 2.5408285 h 3.09997 v 9.3087905 q 1.963312,-2.5452337 5.011615,-2.5452337 1.687761,0 3.186079,0.7119527 1.515541,0.694154 2.479975,1.975671 0.981657,1.263717 1.532762,3.061399 0.551106,1.797683 0.551106,3.844548 0,4.859082 -2.324977,7.511108 -2.324976,2.652027 -5.579944,2.652027 -3.237745,0 -5.080503,-2.794418 z m -0.03445,-9.593572 q 0,3.399577 0.895546,4.912478 1.463875,2.474038 3.961072,2.474038 2.032202,0 3.513298,-1.815481 1.481095,-1.833279 1.481095,-5.446443 0,-3.702157 -1.429429,-5.464242 -1.412208,-1.762085 -3.427188,-1.762085 -2.032202,0 -3.513298,1.83328 -1.481096,1.815481 -1.481096,5.268455 z"
               style="font-size:27.1826px;line-height:0;font-family:Arial;-inkscape-font-specification:Arial;letter-spacing:-2.9186px;fill:url(#linearGradient1720);fill-opacity:1;stroke-width:0.480219"
               id="path5485" />
          </g>
          <path
             id="path1343"
             d="m 50.7416,5.3925926 -5.109476,0.687053 c 0.480021,0.20984 0.849258,0.366462 1.328302,0.242854 1.179164,-0.304379 2.375859,-0.541749 3.565038,-0.807287 0.0767,-0.01734 0.151858,-0.04267 0.227587,-0.06441 z m 2.921883,0.123575 c -1.780839,0.395009 -3.540739,0.785022 -5.300325,1.175145 l -0.0095,0.05964 c 2.095722,0.5799327 4.191477,1.1596537 6.360485,1.7596177 z m -9.087702,0.934677 c -0.06346,0.0053 -0.138822,0.04053 -0.195619,0.07204 -1.183072,0.6610347 -2.388329,1.2863577 -3.534026,2.0072417 -0.573337,0.360566 -1.040152,0.891857 -1.547777,1.355021 -0.817622,0.7465367 -1.634803,1.4951417 -2.440944,2.2548677 -0.213994,0.201536 -0.409048,0.431841 -0.575406,0.674171 -0.551597,0.802721 -1.085929,1.61665 -1.645587,2.454305 0.313174,0.323921 0.597145,0.633549 0.90128,0.921318 0.06572,0.0623 0.229383,0.09797 0.305356,0.06059 1.345767,-0.661523 2.700419,-1.307942 4.016872,-2.023941 0.428964,-0.233048 0.758773,-0.65191 1.128865,-0.990979 1.224601,-1.122978 2.446648,-2.248047 3.66905,-3.3737137 0.075,-0.06913 0.163553,-0.136082 0.208502,-0.223293 0.43898,-0.858173 0.870054,-1.719971 1.31685,-2.607459 -0.532785,-0.1995807 -1.037686,-0.3961237 -1.54873,-0.5744517 -0.01735,-0.0061 -0.03753,-0.0075 -0.05869,-0.0058 z m 2.413749,0.6202547 c -0.05319,0.0104 -0.09959,0.04633 -0.14075,0.130732 -0.396231,0.812003 -0.805008,1.61828 -1.20759,2.427108 -0.01246,0.02516 -0.01007,0.05794 -0.01956,0.120233 2.430148,-0.368137 4.84441,-0.734066 7.257946,-1.09976 l 0.0014,-0.05105 c -0.78049,-0.206665 -1.56048,-0.414579 -2.341703,-0.619779 -1.122002,-0.294852 -2.245045,-0.586319 -3.366557,-0.884103 -0.06999,-0.01857 -0.130022,-0.03379 -0.183215,-0.02338 z m 7.699758,1.895597 c -0.423833,0.636119 -0.848423,1.2718737 -1.271522,1.9084807 -1.453498,2.186595 -2.906704,4.373067 -4.35849,6.560397 -0.08086,0.122141 -0.185406,0.218895 -0.07157,0.406505 1.403174,2.316555 2.794477,4.640457 4.189588,6.961654 0.220101,0.366673 0.443249,0.731769 0.728085,1.083539 L 54.751312,8.9848273 Z m -0.822076,0.0272 c -2.724023,0.455104 -5.38343,0.898844 -8.077161,1.3488187 l 2.741053,6.667271 c 1.789144,-2.68738 3.542811,-5.321625 5.336108,-8.0160897 z m -8.679286,1.2953807 -4.619951,4.224418 c 2.45311,0.796614 4.858025,1.576909 7.3319,2.379874 -0.918757,-2.238383 -1.80614,-4.398397 -2.711949,-6.604292 z m -5.327996,4.705355 c -1.33624,0.694259 -2.611114,1.35648 -3.920971,2.037302 0.66812,1.737355 1.381121,3.569755 2.079288,5.3738 l 0.06059,-0.01336 c 0.586529,-2.439919 1.181857,-4.862795 1.781088,-7.397741 z m 0.595922,0.09733 c -0.669097,2.828088 -1.335092,5.640188 -2.022511,8.544737 3.224319,-2.0774 6.373991,-4.106793 9.502795,-6.122878 -2.489998,-0.80614 -4.971965,-1.609856 -7.480284,-2.421859 z m -6.138623,0.823508 -1.280112,6.319929 0.04724,0.02243 c 0.03249,-0.05228 0.07196,-0.101268 0.0959,-0.15745 0.699632,-1.622297 1.395344,-3.24579 2.097418,-4.866622 0.07035,-0.162938 0.06501,-0.27295 -0.07252,-0.403643 -0.293875,-0.279706 -0.566686,-0.580945 -0.887921,-0.914638 z m 1.321622,1.923271 -2.56595,6.133851 c 1.644283,-0.04861 3.238702,-0.09596 4.887138,-0.144568 -0.773895,-1.997274 -1.53288,-3.955366 -2.321188,-5.989283 z m 12.84311,0.127868 c -3.156163,2.033917 -6.283346,4.049512 -9.493253,6.117629 4.807043,0.656394 9.528316,1.301205 14.343174,1.958577 -1.640129,-2.731352 -3.238372,-5.392736 -4.849921,-8.076206 z m -10.518583,6.547036 c -0.597288,-0.01411 -1.202018,0.03525 -1.801127,0.04532 -0.656393,0.01123 -1.312923,0.03602 -1.969073,0.05678 -0.06766,0.002 -0.135121,0.01571 -0.202299,0.08827 5.425572,0.501762 10.851614,1.003306 16.276941,1.505312 l 0.01145,-0.07252 -5.218258,-0.71234 c -2.167542,-0.29583 -4.331193,-0.621306 -6.50362,-0.871698 -0.196955,-0.02266 -0.394918,-0.03442 -0.594014,-0.03913 z"
             style="fill:url(#linearGradient11270);fill-opacity:1;stroke-width:0.244285" />
        </g>
      </g>
    </g>
  </g>
</svg>
