<?xml version="1.0" encoding="UTF-8" standalone="no"?>
<!-- Created with Inkscape (http://www.inkscape.org/) -->

<svg
   width="150"
   height="55"
   viewBox="0 0 39.687501 14.552082"
   version="1.1"
   id="svg5"
   inkscape:version="1.2.2 (b0a8486541, 2022-12-01)"
   sodipodi:docname="logoalx.svg"
   inkscape:export-filename="logoalx.png"
   inkscape:export-xdpi="95.970001"
   inkscape:export-ydpi="95.970001"
   xmlns:inkscape="http://www.inkscape.org/namespaces/inkscape"
   xmlns:sodipodi="http://sodipodi.sourceforge.net/DTD/sodipodi-0.dtd"
   xmlns:xlink="http://www.w3.org/1999/xlink"
   xmlns="http://www.w3.org/2000/svg"
   xmlns:svg="http://www.w3.org/2000/svg">
  <sodipodi:namedview
     id="namedview7"
     pagecolor="#ffffff"
     bordercolor="#000000"
     borderopacity="0.25"
     inkscape:showpageshadow="2"
     inkscape:pageopacity="0.0"
     inkscape:pagecheckerboard="0"
     inkscape:deskcolor="#d1d1d1"
     inkscape:document-units="px"
     showgrid="false"
     inkscape:lockguides="false"
     showborder="false"
     inkscape:zoom="6.6899997"
     inkscape:cx="76.008972"
     inkscape:cy="32.13752"
     inkscape:window-width="1920"
     inkscape:window-height="948"
     inkscape:window-x="0"
     inkscape:window-y="0"
     inkscape:window-maximized="1"
     inkscape:current-layer="g1897" />
  <defs
     id="defs2">
    <linearGradient
       inkscape:collect="always"
       id="linearGradient2659">
      <stop
         style="stop-color:#0066ff;stop-opacity:1;"
         offset="0"
         id="stop2655" />
      <stop
         style="stop-color:#7744ff;stop-opacity:1;"
         offset="0.39291823"
         id="stop2663" />
      <stop
         style="stop-color:#d42aff;stop-opacity:1"
         offset="1"
         id="stop2657" />
    </linearGradient>
    <rect
       x="128.66301"
       y="320.75262"
       width="376.57697"
       height="426.31842"
       id="rect1516" />
    <linearGradient
       inkscape:collect="always"
       xlink:href="#linearGradient2659"
       id="linearGradient1054"
       x1="165.96228"
       y1="536.68799"
       x2="450.02426"
       y2="430.55054"
       gradientUnits="userSpaceOnUse" />
    <linearGradient
       inkscape:collect="always"
       xlink:href="#linearGradient2659"
       id="linearGradient1105"
       x1="12.552394"
       y1="16.94381"
       x2="40.511909"
       y2="6.7811332"
       gradientUnits="userSpaceOnUse" />
    <linearGradient
       inkscape:collect="always"
       xlink:href="#linearGradient2659"
       id="linearGradient1833"
       gradientUnits="userSpaceOnUse"
       x1="165.96228"
       y1="536.68799"
       x2="450.02426"
       y2="430.55054" />
    <linearGradient
       inkscape:collect="always"
       xlink:href="#linearGradient2659"
       id="linearGradient1835"
       gradientUnits="userSpaceOnUse"
       x1="165.96228"
       y1="536.68799"
       x2="450.02426"
       y2="430.55054" />
    <linearGradient
       inkscape:collect="always"
       xlink:href="#linearGradient2659"
       id="linearGradient1837"
       gradientUnits="userSpaceOnUse"
       x1="165.96228"
       y1="536.68799"
       x2="450.02426"
       y2="430.55054" />
    <linearGradient
       inkscape:collect="always"
       xlink:href="#linearGradient2659"
       id="linearGradient1839"
       gradientUnits="userSpaceOnUse"
       x1="165.96228"
       y1="536.68799"
       x2="450.02426"
       y2="430.55054" />
    <linearGradient
       inkscape:collect="always"
       xlink:href="#linearGradient2659"
       id="linearGradient1841"
       gradientUnits="userSpaceOnUse"
       x1="12.552394"
       y1="16.94381"
       x2="40.511909"
       y2="6.7811332" />
    <linearGradient
       inkscape:collect="always"
       xlink:href="#linearGradient2659"
       id="linearGradient1843"
       gradientUnits="userSpaceOnUse"
       x1="12.552394"
       y1="16.94381"
       x2="40.511909"
       y2="6.7811332" />
    <linearGradient
       inkscape:collect="always"
       xlink:href="#linearGradient2659"
       id="linearGradient1845"
       gradientUnits="userSpaceOnUse"
       x1="12.552394"
       y1="16.94381"
       x2="40.511909"
       y2="6.7811332" />
    <linearGradient
       inkscape:collect="always"
       xlink:href="#linearGradient2659"
       id="linearGradient1847"
       gradientUnits="userSpaceOnUse"
       x1="12.552394"
       y1="16.94381"
       x2="40.511909"
       y2="6.7811332" />
    <linearGradient
       inkscape:collect="always"
       xlink:href="#linearGradient2659"
       id="linearGradient1849"
       gradientUnits="userSpaceOnUse"
       x1="12.552394"
       y1="16.94381"
       x2="40.511909"
       y2="6.7811332" />
    <linearGradient
       inkscape:collect="always"
       xlink:href="#linearGradient2659"
       id="linearGradient1851"
       gradientUnits="userSpaceOnUse"
       x1="12.552394"
       y1="16.94381"
       x2="40.511909"
       y2="6.7811332" />
    <linearGradient
       inkscape:collect="always"
       xlink:href="#linearGradient2659"
       id="linearGradient1853"
       gradientUnits="userSpaceOnUse"
       x1="12.552394"
       y1="16.94381"
       x2="40.511909"
       y2="6.7811332" />
    <linearGradient
       inkscape:collect="always"
       xlink:href="#linearGradient2659"
       id="linearGradient1855"
       gradientUnits="userSpaceOnUse"
       x1="12.552394"
       y1="16.94381"
       x2="40.511909"
       y2="6.7811332" />
    <linearGradient
       inkscape:collect="always"
       xlink:href="#linearGradient2659"
       id="linearGradient1857"
       gradientUnits="userSpaceOnUse"
       x1="12.552394"
       y1="16.94381"
       x2="40.511909"
       y2="6.7811332" />
    <linearGradient
       inkscape:collect="always"
       xlink:href="#linearGradient2659"
       id="linearGradient1859"
       gradientUnits="userSpaceOnUse"
       x1="12.552394"
       y1="16.94381"
       x2="40.511909"
       y2="6.7811332" />
    <linearGradient
       inkscape:collect="always"
       xlink:href="#linearGradient2659"
       id="linearGradient1861"
       gradientUnits="userSpaceOnUse"
       x1="12.552394"
       y1="16.94381"
       x2="40.511909"
       y2="6.7811332" />
    <linearGradient
       inkscape:collect="always"
       xlink:href="#linearGradient2659"
       id="linearGradient1863"
       gradientUnits="userSpaceOnUse"
       x1="12.552394"
       y1="16.94381"
       x2="40.511909"
       y2="6.7811332" />
    <linearGradient
       inkscape:collect="always"
       xlink:href="#linearGradient2659"
       id="linearGradient1865"
       gradientUnits="userSpaceOnUse"
       x1="12.552394"
       y1="16.94381"
       x2="40.511909"
       y2="6.7811332" />
    <linearGradient
       inkscape:collect="always"
       xlink:href="#linearGradient2659"
       id="linearGradient1867"
       gradientUnits="userSpaceOnUse"
       x1="12.552394"
       y1="16.94381"
       x2="40.511909"
       y2="6.7811332" />
    <linearGradient
       inkscape:collect="always"
       xlink:href="#linearGradient2659"
       id="linearGradient1869"
       gradientUnits="userSpaceOnUse"
       x1="12.552394"
       y1="16.94381"
       x2="40.511909"
       y2="6.7811332" />
    <linearGradient
       inkscape:collect="always"
       xlink:href="#linearGradient2659"
       id="linearGradient1871"
       gradientUnits="userSpaceOnUse"
       x1="12.552394"
       y1="16.94381"
       x2="40.511909"
       y2="6.7811332" />
  </defs>
  <g
     inkscape:label="Camada 1"
     inkscape:groupmode="layer"
     id="layer1"
     transform="translate(0,-4.3271117e-5)">
    <g
       id="g1897"
       transform="translate(-0.01846493,-1.7189996)">
      <rect
         style="opacity:0;mix-blend-mode:normal;fill:#ffffff;fill-opacity:0.00150326;stroke-width:0.00465248;stroke-linecap:square"
         id="rect2510"
         width="26.458334"
         height="9.5249996"
         x="0.018464433"
         y="1.7253088" />
      <g
         id="g987"
         transform="matrix(1.4193088,0,0,1.4193088,-17.690323,-8.163195)">
        <g
           aria-label="AlX"
           transform="matrix(0.09662811,0,0,0.09839088,-3.2283999,-35.558032)"
           id="text1514"
           style="font-size:96px;font-family:Comfortaa;-inkscape-font-specification:Comfortaa;white-space:pre;shape-inside:url(#rect1516);shape-padding:99.4317;fill:url(#linearGradient1054);fill-opacity:1;stroke-width:0.05;stroke-linecap:square">
          <g
             id="g893"
             style="fill:url(#linearGradient1839);fill-opacity:1">
            <path
               id="path2828"
               style="font-weight:300;-inkscape-font-specification:'Comfortaa Light';fill:url(#linearGradient1833);fill-opacity:1"
               d="m 262.07836,433.0606 c -1.344,0 -2.27212,0.67152 -2.78412,2.01552 l -29.08926,68.83205 c -0.448,0.832 -0.448,1.72787 0,2.68787 0.512,0.96 1.37612,1.44054 2.59211,1.44054 0.64,0 1.18407,-0.12732 1.63207,-0.38332 0.448,-0.32 0.80005,-0.80054 1.05605,-1.44054 l 7.10273,-16.99278 h 0.0268 l 2.17504,-5.18408 h -0.0346 l 17.32638,-41.44947 0.0504,0.11901 0.006,-0.017 26.62777,63.52432 c 0.32,0.64 0.67205,1.12054 1.05605,1.44054 0.448,0.256 0.99207,0.38332 1.63207,0.38332 1.088,0 1.92011,-0.44871 2.49611,-1.34471 0.576,-0.96 0.608,-1.8877 0.096,-2.7837 l -29.18368,-68.83205 c -0.576,-1.344 -1.50412,-2.01552 -2.78412,-2.01552 z" />
            <path
               d="m 314.78167,508.03651 q -3.648,0 -6.528,-2.016 -2.784,-2.016 -4.416,-5.568 -1.536,-3.552 -1.536,-8.256 v -56.256 q 0,-1.344 0.768,-2.112 0.864,-0.768 2.112,-0.768 1.344,0 2.112,0.768 0.768,0.768 0.768,2.112 v 56.256 q 0,4.416 1.824,7.296 1.92,2.784 4.896,2.784 h 2.4 q 1.056,0 1.728,0.768 0.672,0.768 0.672,2.112 0,1.248 -0.768,2.112 -0.768,0.768 -2.112,0.768 z"
               style="font-weight:300;-inkscape-font-specification:'Comfortaa Light';fill:url(#linearGradient1835);fill-opacity:1"
               id="path2830" />
            <path
               d="m 328.70171,508.03651 q -1.152,0 -2.016,-0.672 -0.768,-0.768 -0.864,-1.824 -0.096,-1.056 0.672,-2.208 l 25.632,-35.424 2.784,-2.016 22.752,-31.584 q 0.96,-1.248 2.4,-1.248 1.344,0 2.016,0.864 0.672,0.768 0.768,1.824 0.192,1.056 -0.384,1.824 l -23.712,32.736 -2.688,1.92 -25.152,34.848 q -0.864,0.96 -2.208,0.96 z m 53.184,0 q -0.48,0 -1.152,-0.192 -0.672,-0.288 -1.056,-0.768 l -24.96,-34.56 -2.592,-1.824 -23.904,-33.12 q -0.672,-0.96 -0.672,-2.016 0.096,-1.056 0.768,-1.728 0.768,-0.768 1.92,-0.768 1.44,0 2.4,1.248 l 23.424,32.352 2.016,1.056 25.824,35.616 q 0.768,0.864 0.672,2.016 0,1.056 -0.768,1.92 -0.672,0.768 -1.92,0.768 z"
               style="font-weight:300;-inkscape-font-specification:'Comfortaa Light';fill:url(#linearGradient1837);fill-opacity:1"
               id="path2832" />
          </g>
        </g>
        <g
           id="g950"
           style="fill:url(#linearGradient1105);fill-opacity:1">
          <g
             aria-label="alexandre barros"
             id="text229"
             style="font-size:3.175px;font-family:Comfortaa;-inkscape-font-specification:Comfortaa;fill:url(#linearGradient1871);fill-opacity:1;stroke-width:0.264583">
            <path
               d="m 13.394796,17.127182 q -0.244475,0 -0.43815,-0.1143 -0.193675,-0.117475 -0.307975,-0.3175 -0.111125,-0.200025 -0.111125,-0.45085 0,-0.254 0.1143,-0.454025 0.117475,-0.200025 0.3175,-0.314325 0.200025,-0.117475 0.45085,-0.117475 0.250825,0 0.447675,0.117475 0.200025,0.1143 0.314325,0.314325 0.117475,0.200025 0.12065,0.454025 l -0.09843,0.0762 q 0,0.2286 -0.10795,0.41275 -0.104775,0.180975 -0.288925,0.288925 -0.180975,0.104775 -0.41275,0.104775 z m 0.0254,-0.22225 q 0.18415,0 0.327025,-0.08573 0.14605,-0.08573 0.2286,-0.23495 0.08573,-0.1524 0.08573,-0.339725 0,-0.1905 -0.08573,-0.339725 -0.08255,-0.149225 -0.2286,-0.23495 -0.142875,-0.0889 -0.327025,-0.0889 -0.180975,0 -0.327025,0.0889 -0.14605,0.08573 -0.231775,0.23495 -0.08572,0.149225 -0.08572,0.339725 0,0.187325 0.08572,0.339725 0.08573,0.149225 0.231775,0.23495 0.14605,0.08573 0.327025,0.08573 z m 0.758825,0.206375 q -0.05398,0 -0.0889,-0.03175 -0.03492,-0.03493 -0.03492,-0.0889 v -0.542925 l 0.06032,-0.250825 0.187325,0.04763 v 0.746125 q 0,0.05398 -0.03493,0.0889 -0.03492,0.03175 -0.0889,0.03175 z"
               id="path903"
               style="fill:url(#linearGradient1841);fill-opacity:1" />
            <path
               d="m 15.153746,17.111307 q -0.127,0 -0.2286,-0.06985 -0.09843,-0.06985 -0.155575,-0.193675 -0.05397,-0.123825 -0.05397,-0.28575 v -1.80975 q 0,-0.05397 0.03175,-0.08573 0.03492,-0.03492 0.0889,-0.03492 0.05398,0 0.08573,0.03492 0.03493,0.03175 0.03493,0.08573 v 1.80975 q 0,0.136525 0.05397,0.22225 0.05715,0.08573 0.142875,0.08573 h 0.07938 q 0.04763,0 0.0762,0.03492 0.02858,0.03175 0.02858,0.08573 0,0.05398 -0.04128,0.0889 -0.0381,0.03175 -0.1016,0.03175 z"
               id="path905"
               style="fill:url(#linearGradient1843);fill-opacity:1" />
            <path
               d="m 16.366593,17.127182 q -0.257175,0 -0.4572,-0.111125 -0.19685,-0.1143 -0.31115,-0.314325 -0.111125,-0.200025 -0.111125,-0.4572 0,-0.26035 0.104775,-0.4572 0.10795,-0.200025 0.295275,-0.314325 0.187325,-0.1143 0.4318,-0.1143 0.2413,0 0.4191,0.111125 0.180975,0.10795 0.2794,0.301625 0.09842,0.193675 0.09842,0.441325 0,0.0508 -0.03175,0.08255 -0.03175,0.02858 -0.08255,0.02858 h -1.349375 v -0.2032 h 1.374775 l -0.136525,0.09842 q 0.0032,-0.18415 -0.06668,-0.3302 -0.06985,-0.14605 -0.200025,-0.2286 -0.127,-0.08255 -0.3048,-0.08255 -0.180975,0 -0.3175,0.08573 -0.136525,0.08573 -0.212725,0.238125 -0.07302,0.149225 -0.07302,0.3429 0,0.193675 0.08255,0.3429 0.08573,0.149225 0.231775,0.23495 0.14605,0.08573 0.33655,0.08573 0.1143,0 0.2286,-0.0381 0.117475,-0.04128 0.187325,-0.1016 0.03493,-0.02858 0.07937,-0.02858 0.04445,-0.0032 0.0762,0.02222 0.04128,0.0381 0.04128,0.08255 0.0032,0.04445 -0.03493,0.0762 -0.104775,0.0889 -0.2667,0.149225 -0.161925,0.05715 -0.31115,0.05715 z"
               id="path907"
               style="fill:url(#linearGradient1845);fill-opacity:1" />
            <path
               d="m 18.646242,17.111307 q -0.0381,0 -0.0635,-0.0127 -0.02222,-0.0127 -0.04763,-0.04445 l -0.549275,-0.6985 -0.09525,-0.08255 -0.55245,-0.701675 q -0.03493,-0.04127 -0.03493,-0.08573 0.0032,-0.04445 0.03175,-0.0762 0.02858,-0.03492 0.08255,-0.03492 0.05398,0 0.09208,0.0381 l 0.5334,0.682625 0.08573,0.06985 0.59055,0.75565 q 0.04128,0.0508 0.03493,0.09525 -0.0064,0.04445 -0.04127,0.06985 -0.03175,0.0254 -0.06668,0.0254 z m -1.2573,0 q -0.0508,0 -0.08255,-0.03175 -0.02858,-0.03175 -0.03175,-0.0762 0,-0.04445 0.03493,-0.08573 l 0.5842,-0.73025 0.136525,0.180975 -0.555625,0.70485 q -0.02858,0.0381 -0.08573,0.0381 z m 0.74295,-0.8255 -0.155575,-0.15875 0.549275,-0.695325 q 0.02222,-0.03175 0.04763,-0.04445 0.02858,-0.0127 0.05715,-0.0127 0.05398,0 0.08255,0.03492 0.02858,0.03175 0.0254,0.07938 0,0.04445 -0.03175,0.08573 z"
               id="path909"
               style="fill:url(#linearGradient1847);fill-opacity:1" />
            <path
               d="m 19.77972,17.127182 q -0.244475,0 -0.43815,-0.1143 -0.193675,-0.117475 -0.307975,-0.3175 -0.111125,-0.200025 -0.111125,-0.45085 0,-0.254 0.1143,-0.454025 0.117475,-0.200025 0.3175,-0.314325 0.200025,-0.117475 0.45085,-0.117475 0.250825,0 0.447675,0.117475 0.200025,0.1143 0.314325,0.314325 0.117475,0.200025 0.12065,0.454025 l -0.09842,0.0762 q 0,0.2286 -0.10795,0.41275 -0.104775,0.180975 -0.288925,0.288925 -0.180975,0.104775 -0.41275,0.104775 z m 0.0254,-0.22225 q 0.18415,0 0.327025,-0.08573 0.14605,-0.08573 0.2286,-0.23495 0.08573,-0.1524 0.08573,-0.339725 0,-0.1905 -0.08573,-0.339725 -0.08255,-0.149225 -0.2286,-0.23495 -0.142875,-0.0889 -0.327025,-0.0889 -0.180975,0 -0.327025,0.0889 -0.14605,0.08573 -0.231775,0.23495 -0.08573,0.149225 -0.08573,0.339725 0,0.187325 0.08573,0.339725 0.08573,0.149225 0.231775,0.23495 0.14605,0.08573 0.327025,0.08573 z m 0.758825,0.206375 q -0.05398,0 -0.0889,-0.03175 -0.03493,-0.03493 -0.03493,-0.0889 v -0.542925 l 0.06032,-0.250825 0.187325,0.04763 v 0.746125 q 0,0.05398 -0.03493,0.0889 -0.03492,0.03175 -0.0889,0.03175 z"
               id="path911"
               style="fill:url(#linearGradient1849);fill-opacity:1" />
            <path
               d="m 22.653095,17.111307 q -0.05398,0 -0.0889,-0.03493 -0.03493,-0.03492 -0.03493,-0.08573 v -0.8255 q 0,-0.19685 -0.0762,-0.32385 -0.07303,-0.127 -0.2032,-0.1905 -0.127,-0.0635 -0.288925,-0.0635 -0.155575,0 -0.282575,0.06033 -0.123825,0.06033 -0.19685,0.1651 -0.07303,0.104775 -0.07303,0.238125 H 21.23387 q 0.0064,-0.200025 0.10795,-0.3556 0.1016,-0.15875 0.269875,-0.24765 0.168275,-0.09207 0.37465,-0.09207 0.225425,0 0.403225,0.09525 0.1778,0.09207 0.2794,0.27305 0.104775,0.180975 0.104775,0.441325 v 0.8255 q 0,0.0508 -0.03493,0.08573 -0.03493,0.03493 -0.08573,0.03493 z m -1.36525,0 q -0.05715,0 -0.09208,-0.03175 -0.03175,-0.03493 -0.03175,-0.0889 v -1.49225 q 0,-0.05715 0.03175,-0.0889 0.03493,-0.03492 0.09208,-0.03492 0.05397,0 0.08573,0.03492 0.03492,0.03175 0.03492,0.0889 v 1.49225 q 0,0.05398 -0.03492,0.0889 -0.03175,0.03175 -0.08573,0.03175 z"
               id="path913"
               style="fill:url(#linearGradient1851);fill-opacity:1" />
            <path
               d="m 24.10407,17.127182 q -0.250825,0 -0.45085,-0.1143 -0.200025,-0.117475 -0.3175,-0.3175 -0.1143,-0.200025 -0.1143,-0.454025 0,-0.250825 0.111125,-0.45085 0.1143,-0.200025 0.307975,-0.314325 0.193675,-0.117475 0.43815,-0.117475 0.212725,0 0.384175,0.09207 0.17145,0.0889 0.276225,0.238125 v -0.93345 q 0,-0.05715 0.03492,-0.0889 0.03493,-0.03492 0.0889,-0.03492 0.05397,0 0.0889,0.03492 0.03492,0.03175 0.03492,0.0889 v 1.4986 q -0.0063,0.24765 -0.123825,0.447675 -0.1143,0.19685 -0.314325,0.31115 -0.19685,0.1143 -0.4445,0.1143 z m 0,-0.22225 q 0.18415,0 0.327025,-0.08573 0.14605,-0.0889 0.2286,-0.238125 0.08573,-0.149225 0.08573,-0.339725 0,-0.187325 -0.08573,-0.33655 -0.08255,-0.1524 -0.2286,-0.238125 -0.142875,-0.08573 -0.327025,-0.08573 -0.180975,0 -0.327025,0.08573 -0.14605,0.08573 -0.231775,0.238125 -0.08573,0.149225 -0.08573,0.33655 0,0.1905 0.08573,0.339725 0.08573,0.149225 0.231775,0.238125 0.14605,0.08573 0.327025,0.08573 z"
               id="path915"
               style="fill:url(#linearGradient1853);fill-opacity:1" />
            <path
               d="m 25.659822,16.041332 q 0.0095,-0.19685 0.1016,-0.352425 0.09525,-0.155575 0.244475,-0.244475 0.1524,-0.0889 0.33655,-0.0889 0.14605,0 0.225425,0.04128 0.07937,0.04127 0.06032,0.12065 -0.0127,0.04763 -0.04445,0.0635 -0.02858,0.01587 -0.07302,0.0127 -0.04128,-0.0032 -0.09525,-0.0064 -0.1778,-0.01587 -0.3175,0.0381 -0.136525,0.0508 -0.219075,0.15875 -0.07937,0.10795 -0.07937,0.257175 z m 0.01905,1.069975 q -0.05715,0 -0.0889,-0.03175 -0.03175,-0.03175 -0.03175,-0.0889 v -1.495425 q 0,-0.05715 0.03175,-0.0889 0.03175,-0.03175 0.0889,-0.03175 0.05715,0 0.0889,0.03175 0.03175,0.03175 0.03175,0.0889 v 1.495425 q 0,0.05715 -0.03175,0.0889 -0.03175,0.03175 -0.0889,0.03175 z"
               id="path917"
               style="fill:url(#linearGradient1855);fill-opacity:1" />
            <path
               d="m 27.67277,17.127182 q -0.257175,0 -0.4572,-0.111125 -0.19685,-0.1143 -0.31115,-0.314325 -0.111125,-0.200025 -0.111125,-0.4572 0,-0.26035 0.104775,-0.4572 0.10795,-0.200025 0.295275,-0.314325 0.187325,-0.1143 0.4318,-0.1143 0.2413,0 0.4191,0.111125 0.180975,0.10795 0.2794,0.301625 0.09843,0.193675 0.09843,0.441325 0,0.0508 -0.03175,0.08255 -0.03175,0.02858 -0.08255,0.02858 H 26.9584 v -0.2032 h 1.374775 l -0.136525,0.09842 q 0.0032,-0.18415 -0.06668,-0.3302 -0.06985,-0.14605 -0.200025,-0.2286 -0.127,-0.08255 -0.3048,-0.08255 -0.180975,0 -0.3175,0.08573 -0.136525,0.08573 -0.212725,0.238125 -0.07302,0.149225 -0.07302,0.3429 0,0.193675 0.08255,0.3429 0.08573,0.149225 0.231775,0.23495 0.14605,0.08573 0.33655,0.08573 0.1143,0 0.2286,-0.0381 0.117475,-0.04128 0.187325,-0.1016 0.03492,-0.02858 0.07937,-0.02858 0.04445,-0.0032 0.0762,0.02222 0.04127,0.0381 0.04127,0.08255 0.0032,0.04445 -0.03492,0.0762 -0.104775,0.0889 -0.2667,0.149225 -0.161925,0.05715 -0.31115,0.05715 z"
               id="path919"
               style="fill:url(#linearGradient1857);fill-opacity:1" />
            <path
               d="m 30.644569,17.127182 q -0.24765,0 -0.447675,-0.1143 -0.19685,-0.1143 -0.314325,-0.31115 -0.1143,-0.200025 -0.117475,-0.447675 v -1.4986 q 0,-0.05715 0.03175,-0.0889 0.03493,-0.03492 0.09208,-0.03492 0.05397,0 0.08573,0.03492 0.03492,0.03175 0.03492,0.0889 v 0.93345 q 0.104775,-0.149225 0.276225,-0.238125 0.174625,-0.09207 0.38735,-0.09207 0.244475,0 0.43815,0.117475 0.193675,0.1143 0.3048,0.314325 0.1143,0.200025 0.1143,0.45085 0,0.254 -0.117475,0.454025 -0.1143,0.200025 -0.314325,0.3175 -0.200025,0.1143 -0.454025,0.1143 z m 0,-0.22225 q 0.18415,0 0.3302,-0.08573 0.14605,-0.0889 0.2286,-0.238125 0.08573,-0.149225 0.08573,-0.339725 0,-0.187325 -0.08573,-0.33655 -0.08255,-0.1524 -0.2286,-0.238125 -0.14605,-0.08573 -0.3302,-0.08573 -0.180975,0 -0.327025,0.08573 -0.14605,0.08573 -0.2286,0.238125 -0.08255,0.149225 -0.08255,0.33655 0,0.1905 0.08255,0.339725 0.08255,0.149225 0.2286,0.238125 0.14605,0.08573 0.327025,0.08573 z"
               id="path921"
               style="fill:url(#linearGradient1859);fill-opacity:1" />
            <path
               d="m 32.774996,17.127182 q -0.244475,0 -0.43815,-0.1143 -0.193675,-0.117475 -0.307975,-0.3175 -0.111125,-0.200025 -0.111125,-0.45085 0,-0.254 0.1143,-0.454025 0.117475,-0.200025 0.3175,-0.314325 0.200025,-0.117475 0.45085,-0.117475 0.250825,0 0.447675,0.117475 0.200025,0.1143 0.314325,0.314325 0.117475,0.200025 0.12065,0.454025 l -0.09842,0.0762 q 0,0.2286 -0.10795,0.41275 -0.104775,0.180975 -0.288925,0.288925 -0.180975,0.104775 -0.41275,0.104775 z m 0.0254,-0.22225 q 0.18415,0 0.327025,-0.08573 0.14605,-0.08573 0.2286,-0.23495 0.08573,-0.1524 0.08573,-0.339725 0,-0.1905 -0.08573,-0.339725 -0.08255,-0.149225 -0.2286,-0.23495 -0.142875,-0.0889 -0.327025,-0.0889 -0.180975,0 -0.327025,0.0889 -0.14605,0.08573 -0.231775,0.23495 -0.08573,0.149225 -0.08573,0.339725 0,0.187325 0.08573,0.339725 0.08572,0.149225 0.231775,0.23495 0.14605,0.08573 0.327025,0.08573 z m 0.758825,0.206375 q -0.05398,0 -0.0889,-0.03175 -0.03493,-0.03493 -0.03493,-0.0889 v -0.542925 l 0.06033,-0.250825 0.187325,0.04763 v 0.746125 q 0,0.05398 -0.03492,0.0889 -0.03493,0.03175 -0.0889,0.03175 z"
               id="path923"
               style="fill:url(#linearGradient1861);fill-opacity:1" />
            <path
               d="m 34.260896,16.041332 q 0.0095,-0.19685 0.1016,-0.352425 0.09525,-0.155575 0.244475,-0.244475 0.1524,-0.0889 0.33655,-0.0889 0.14605,0 0.225425,0.04128 0.07937,0.04127 0.06032,0.12065 -0.0127,0.04763 -0.04445,0.0635 -0.02857,0.01587 -0.07303,0.0127 -0.04127,-0.0032 -0.09525,-0.0064 -0.1778,-0.01587 -0.3175,0.0381 -0.136525,0.0508 -0.219075,0.15875 -0.07937,0.10795 -0.07937,0.257175 z m 0.01905,1.069975 q -0.05715,0 -0.0889,-0.03175 -0.03175,-0.03175 -0.03175,-0.0889 v -1.495425 q 0,-0.05715 0.03175,-0.0889 0.03175,-0.03175 0.0889,-0.03175 0.05715,0 0.0889,0.03175 0.03175,0.03175 0.03175,0.0889 v 1.495425 q 0,0.05715 -0.03175,0.0889 -0.03175,0.03175 -0.0889,0.03175 z"
               id="path925"
               style="fill:url(#linearGradient1863);fill-opacity:1" />
            <path
               d="m 35.715047,16.041332 q 0.0095,-0.19685 0.1016,-0.352425 0.09525,-0.155575 0.244475,-0.244475 0.1524,-0.0889 0.33655,-0.0889 0.14605,0 0.225425,0.04128 0.07937,0.04127 0.06032,0.12065 -0.0127,0.04763 -0.04445,0.0635 -0.02858,0.01587 -0.07303,0.0127 -0.04127,-0.0032 -0.09525,-0.0064 -0.1778,-0.01587 -0.3175,0.0381 -0.136525,0.0508 -0.219075,0.15875 -0.07937,0.10795 -0.07937,0.257175 z m 0.01905,1.069975 q -0.05715,0 -0.0889,-0.03175 -0.03175,-0.03175 -0.03175,-0.0889 v -1.495425 q 0,-0.05715 0.03175,-0.0889 0.03175,-0.03175 0.0889,-0.03175 0.05715,0 0.0889,0.03175 0.03175,0.03175 0.03175,0.0889 v 1.495425 q 0,0.05715 -0.03175,0.0889 -0.03175,0.03175 -0.0889,0.03175 z"
               id="path927"
               style="fill:url(#linearGradient1865);fill-opacity:1" />
            <path
               d="m 37.73117,17.127182 q -0.254,0 -0.454025,-0.1143 -0.200025,-0.1143 -0.314325,-0.314325 -0.1143,-0.200025 -0.1143,-0.454025 0,-0.257175 0.1143,-0.4572 0.1143,-0.200025 0.314325,-0.314325 0.200025,-0.1143 0.454025,-0.1143 0.254,0 0.45085,0.1143 0.200025,0.1143 0.314325,0.314325 0.1143,0.200025 0.117475,0.4572 0,0.254 -0.117475,0.454025 -0.1143,0.200025 -0.314325,0.314325 -0.19685,0.1143 -0.45085,0.1143 z m 0,-0.22225 q 0.18415,0 0.3302,-0.08573 0.14605,-0.08573 0.2286,-0.23495 0.08255,-0.149225 0.08255,-0.339725 0,-0.1905 -0.08255,-0.339725 -0.08255,-0.1524 -0.2286,-0.238125 -0.14605,-0.08573 -0.3302,-0.08573 -0.18415,0 -0.3302,0.08573 -0.14605,0.08573 -0.231775,0.238125 -0.08255,0.149225 -0.08255,0.339725 0,0.1905 0.08255,0.339725 0.08572,0.149225 0.231775,0.23495 0.14605,0.08573 0.3302,0.08573 z"
               id="path929"
               style="fill:url(#linearGradient1867);fill-opacity:1" />
            <path
               d="m 39.696495,17.127182 q -0.187325,0 -0.371475,-0.0635 -0.18415,-0.0635 -0.29845,-0.1905 -0.03493,-0.0381 -0.02857,-0.08573 0.0063,-0.04763 0.04762,-0.08255 0.04445,-0.03175 0.09208,-0.0254 0.04762,0.0063 0.07937,0.04127 0.0762,0.0889 0.200025,0.136525 0.127,0.04763 0.2794,0.04763 0.23495,0 0.339725,-0.07937 0.104775,-0.08255 0.10795,-0.19685 0,-0.1143 -0.10795,-0.187325 -0.10795,-0.0762 -0.3556,-0.117475 -0.320675,-0.0508 -0.4699,-0.1778 -0.149225,-0.127 -0.149225,-0.301625 0,-0.161925 0.08572,-0.269875 0.08573,-0.10795 0.2286,-0.161925 0.142875,-0.05397 0.314325,-0.05397 0.212725,0 0.365125,0.07302 0.155575,0.07302 0.250825,0.19685 0.03175,0.04128 0.0254,0.08573 -0.0063,0.04445 -0.0508,0.07302 -0.0381,0.02223 -0.0889,0.01588 -0.04762,-0.0095 -0.08255,-0.04763 -0.07937,-0.09208 -0.18415,-0.13335 -0.104775,-0.04445 -0.2413,-0.04445 -0.174625,0 -0.2794,0.07303 -0.104775,0.06985 -0.104775,0.1778 0,0.07302 0.0381,0.127 0.04128,0.05398 0.136525,0.09525 0.09842,0.04127 0.27305,0.06985 0.238125,0.0381 0.37465,0.1143 0.1397,0.07303 0.19685,0.174625 0.06032,0.09843 0.06032,0.2159 0,0.149225 -0.0889,0.263525 -0.08572,0.111125 -0.2413,0.174625 -0.1524,0.0635 -0.352425,0.0635 z"
               id="path931"
               style="fill:url(#linearGradient1869);fill-opacity:1" />
          </g>
        </g>
      </g>
    </g>
  </g>
</svg>
