<?xml version="1.0" encoding="UTF-8" standalone="no"?>
<!-- Created with Inkscape (http://www.inkscape.org/) -->

<svg
   width="200"
   height="98.663002"
   viewBox="0 0 52.916667 26.104586"
   version="1.1"
   id="svg5"
   inkscape:version="1.2.2 (b0a8486541, 2022-12-01)"
   sodipodi:docname="logoab.svg"
   xmlns:inkscape="http://www.inkscape.org/namespaces/inkscape"
   xmlns:sodipodi="http://sodipodi.sourceforge.net/DTD/sodipodi-0.dtd"
   xmlns:xlink="http://www.w3.org/1999/xlink"
   xmlns="http://www.w3.org/2000/svg"
   xmlns:svg="http://www.w3.org/2000/svg">
  <sodipodi:namedview
     id="namedview7"
     pagecolor="#ffffff"
     bordercolor="#000000"
     borderopacity="0.25"
     inkscape:showpageshadow="2"
     inkscape:pageopacity="0.0"
     inkscape:pagecheckerboard="0"
     inkscape:deskcolor="#d1d1d1"
     inkscape:document-units="mm"
     showgrid="false"
     inkscape:lockguides="false"
     showborder="false"
     inkscape:zoom="6.37"
     inkscape:cx="100"
     inkscape:cy="49.372057"
     inkscape:window-width="1868"
     inkscape:window-height="1011"
     inkscape:window-x="0"
     inkscape:window-y="0"
     inkscape:window-maximized="1"
     inkscape:current-layer="layer1" />
  <defs
     id="defs2">
    <linearGradient
       inkscape:collect="always"
       id="linearGradient2659">
      <stop
         style="stop-color:#0066ff;stop-opacity:1;"
         offset="0"
         id="stop2655" />
      <stop
         style="stop-color:#7744ff;stop-opacity:1;"
         offset="0.39291823"
         id="stop2663" />
      <stop
         style="stop-color:#d42aff;stop-opacity:1"
         offset="1"
         id="stop2657" />
    </linearGradient>
    <rect
       x="128.66301"
       y="320.75262"
       width="376.57697"
       height="426.31842"
       id="rect1516" />
    <linearGradient
       inkscape:collect="always"
       xlink:href="#linearGradient2659"
       id="linearGradient2661"
       x1="0"
       y1="45.534317"
       x2="52.916664"
       y2="7.0277376"
       gradientUnits="userSpaceOnUse"
       gradientTransform="matrix(1,0,0,0.6779231,0,8.2335462)" />
  </defs>
  <g
     inkscape:label="Camada 1"
     inkscape:groupmode="layer"
     id="layer1">
    <g
       id="g4431"
       transform="translate(0,-12.997769)">
      <rect
         style="mix-blend-mode:normal;fill:url(#linearGradient2661);fill-opacity:1;stroke-width:0.0108925;stroke-linecap:square"
         id="rect2510"
         width="52.916664"
         height="26.1045"
         x="0"
         y="12.997812" />
      <g
         aria-label="AlX"
         transform="matrix(0.3283465,0,0,0.33433646,-74.418596,-131.27146)"
         id="text1514"
         style="font-size:96px;font-family:Comfortaa;-inkscape-font-specification:Comfortaa;white-space:pre;shape-inside:url(#rect1516);shape-padding:99.4317;fill:#ffffff;stroke-width:0.05;stroke-linecap:square">
        <path
           id="path2828"
           style="font-weight:300;-inkscape-font-specification:'Comfortaa Light'"
           d="m 262.07836,433.0606 c -1.344,0 -2.27212,0.67152 -2.78412,2.01552 l -29.08926,68.83205 c -0.448,0.832 -0.448,1.72787 0,2.68787 0.512,0.96 1.37612,1.44054 2.59211,1.44054 0.64,0 1.18407,-0.12732 1.63207,-0.38332 0.448,-0.32 0.80005,-0.80054 1.05605,-1.44054 l 7.10273,-16.99278 h 0.0268 l 2.17504,-5.18408 h -0.0346 l 17.32638,-41.44947 0.0504,0.11901 0.006,-0.017 26.62777,63.52432 c 0.32,0.64 0.67205,1.12054 1.05605,1.44054 0.448,0.256 0.99207,0.38332 1.63207,0.38332 1.088,0 1.92011,-0.44871 2.49611,-1.34471 0.576,-0.96 0.608,-1.8877 0.096,-2.7837 l -29.18368,-68.83205 c -0.576,-1.344 -1.50412,-2.01552 -2.78412,-2.01552 z" />
        <path
           d="m 314.78167,508.03651 q -3.648,0 -6.528,-2.016 -2.784,-2.016 -4.416,-5.568 -1.536,-3.552 -1.536,-8.256 v -56.256 q 0,-1.344 0.768,-2.112 0.864,-0.768 2.112,-0.768 1.344,0 2.112,0.768 0.768,0.768 0.768,2.112 v 56.256 q 0,4.416 1.824,7.296 1.92,2.784 4.896,2.784 h 2.4 q 1.056,0 1.728,0.768 0.672,0.768 0.672,2.112 0,1.248 -0.768,2.112 -0.768,0.768 -2.112,0.768 z"
           style="font-weight:300;-inkscape-font-specification:'Comfortaa Light'"
           id="path2830" />
        <path
           d="m 328.70171,508.03651 q -1.152,0 -2.016,-0.672 -0.768,-0.768 -0.864,-1.824 -0.096,-1.056 0.672,-2.208 l 25.632,-35.424 2.784,-2.016 22.752,-31.584 q 0.96,-1.248 2.4,-1.248 1.344,0 2.016,0.864 0.672,0.768 0.768,1.824 0.192,1.056 -0.384,1.824 l -23.712,32.736 -2.688,1.92 -25.152,34.848 q -0.864,0.96 -2.208,0.96 z m 53.184,0 q -0.48,0 -1.152,-0.192 -0.672,-0.288 -1.056,-0.768 l -24.96,-34.56 -2.592,-1.824 -23.904,-33.12 q -0.672,-0.96 -0.672,-2.016 0.096,-1.056 0.768,-1.728 0.768,-0.768 1.92,-0.768 1.44,0 2.4,1.248 l 23.424,32.352 2.016,1.056 25.824,35.616 q 0.768,0.864 0.672,2.016 0,1.056 -0.768,1.92 -0.672,0.768 -1.92,0.768 z"
           style="font-weight:300;-inkscape-font-specification:'Comfortaa Light'"
           id="path2832" />
      </g>
    </g>
  </g>
</svg>
