<?xml version="1.0" encoding="UTF-8" standalone="no"?>
<!-- Created with Inkscape (http://www.inkscape.org/) -->

<svg
   width="200"
   height="200"
   viewBox="0 0 52.916665 52.916666"
   version="1.1"
   id="svg5"
   inkscape:version="1.2.2 (b0a8486541, 2022-12-01)"
   sodipodi:docname="logoab.svg"
   inkscape:export-filename="logoab.png"
   inkscape:export-xdpi="24"
   inkscape:export-ydpi="24"
   xmlns:inkscape="http://www.inkscape.org/namespaces/inkscape"
   xmlns:sodipodi="http://sodipodi.sourceforge.net/DTD/sodipodi-0.dtd"
   xmlns:xlink="http://www.w3.org/1999/xlink"
   xmlns="http://www.w3.org/2000/svg"
   xmlns:svg="http://www.w3.org/2000/svg">
  <sodipodi:namedview
     id="namedview7"
     pagecolor="#ffffff"
     bordercolor="#000000"
     borderopacity="0.25"
     inkscape:showpageshadow="false"
     inkscape:pageopacity="0.0"
     inkscape:pagecheckerboard="0"
     inkscape:deskcolor="#d1d1d1"
     inkscape:document-units="px"
     showgrid="false"
     showborder="false"
     borderlayer="true"
     inkscape:lockguides="false"
     inkscape:zoom="4.025"
     inkscape:cx="96.149068"
     inkscape:cy="100.74534"
     inkscape:window-width="1868"
     inkscape:window-height="1011"
     inkscape:window-x="0"
     inkscape:window-y="0"
     inkscape:window-maximized="1"
     inkscape:current-layer="g1005">
    <sodipodi:guide
       position="0,52.916666"
       orientation="0,200"
       id="guide9"
       inkscape:locked="false" />
    <sodipodi:guide
       position="52.916666,52.916666"
       orientation="200,0"
       id="guide11"
       inkscape:locked="false" />
    <sodipodi:guide
       position="52.916666,0"
       orientation="0,-200"
       id="guide13"
       inkscape:locked="false" />
    <sodipodi:guide
       position="0,0"
       orientation="-200,0"
       id="guide15"
       inkscape:locked="false" />
  </sodipodi:namedview>
  <defs
     id="defs2">
    <linearGradient
       inkscape:collect="always"
       id="linearGradient3199">
      <stop
         style="stop-color:#5614b0;stop-opacity:1;"
         offset="0"
         id="stop3195" />
      <stop
         style="stop-color:#dbd65c;stop-opacity:1"
         offset="1"
         id="stop3197" />
    </linearGradient>
    <linearGradient
       inkscape:collect="always"
       xlink:href="#linearGradient3199"
       id="linearGradient3201"
       x1="6.6424971"
       y1="19.87072"
       x2="32.674767"
       y2="19.385426"
       gradientUnits="userSpaceOnUse" />
    <linearGradient
       inkscape:collect="always"
       xlink:href="#linearGradient3199"
       id="linearGradient5488"
       gradientUnits="userSpaceOnUse"
       x1="6.6424971"
       y1="19.87072"
       x2="32.674767"
       y2="19.385426" />
    <linearGradient
       inkscape:collect="always"
       xlink:href="#linearGradient3199"
       id="linearGradient5490"
       gradientUnits="userSpaceOnUse"
       x1="6.6424971"
       y1="19.87072"
       x2="32.674767"
       y2="19.385426" />
    <linearGradient
       inkscape:collect="always"
       xlink:href="#linearGradient3199"
       id="linearGradient5492"
       gradientUnits="userSpaceOnUse"
       x1="6.6424971"
       y1="19.87072"
       x2="32.674767"
       y2="19.385426" />
  </defs>
  <g
     inkscape:label="Camada 1"
     inkscape:groupmode="layer"
     id="layer1">
    <g
       id="g1285"
       transform="matrix(1.1984492,0,0,1.1984492,-5.2444321e-6,-2.7970642)">
      <g
         id="g1005">
        <g
           aria-label="ab"
           id="text1691"
           style="font-size:27.1826px;line-height:0;font-family:Verdana;-inkscape-font-specification:Verdana;letter-spacing:-2.9186px;fill:url(#linearGradient5492);stroke-width:0.364051"
           transform="matrix(1.6956209,0,0,1.6956209,-9.8923181,-5.5799994)">
          <path
             d="m 16.251971,25.518277 q -1.327275,1.128184 -2.561642,1.59273 -1.221093,0.464547 -2.628005,0.464547 -2.3227317,0 -3.5703706,-1.128184 -1.2476389,-1.141457 -1.2476389,-2.906733 0,-1.035275 0.4645464,-1.884732 0.4778192,-0.862729 1.2343661,-1.380366 0.7698198,-0.517637 1.725458,-0.783092 0.703456,-0.185819 2.123641,-0.358365 2.89346,-0.345091 4.260554,-0.822911 0.01327,-0.491091 0.01327,-0.623819 0,-1.460003 -0.67691,-2.057277 -0.91582,-0.809638 -2.720915,-0.809638 -1.685639,0 -2.495277,0.597274 -0.7963655,0.584001 -1.1812754,2.083822 L 6.6557699,17.182987 q 0.3185461,-1.499821 1.0485476,-2.415641 0.7300014,-0.929093 2.1103678,-1.420185 1.3803667,-0.504364 3.1987337,-0.504364 1.805095,0 2.933279,0.424728 1.128184,0.424728 1.659094,1.075093 0.53091,0.637092 0.743274,1.619276 0.119455,0.610547 0.119455,2.203277 v 3.185461 q 0,3.331461 0.146,4.220736 0.159273,0.876002 0.610547,1.68564 H 16.72979 Q 16.358153,26.513733 16.251971,25.518277 Z M 16.05288,20.18263 q -1.30073,0.53091 -3.90219,0.902547 -1.473276,0.212364 -2.083822,0.477819 -0.610547,0.265455 -0.9423659,0.783093 -0.3318188,0.504364 -0.3318188,1.128184 0,0.955638 0.7167287,1.59273 0.730001,0.637092 2.123641,0.637092 1.380366,0 2.455459,-0.597274 1.075093,-0.610546 1.579458,-1.659094 0.38491,-0.809638 0.38491,-2.389095 z"
             style="font-family:Arial;-inkscape-font-specification:Arial;fill:url(#linearGradient5488)"
             id="path5483" />
          <path
             d="m 21.456298,27.257008 h -2.21655 V 7.7991504 h 2.389096 v 6.9416506 q 1.513093,-1.898004 3.862371,-1.898004 1.30073,0 2.455459,0.53091 1.168003,0.517637 1.911277,1.473276 0.756547,0.942365 1.181275,2.282913 0.424728,1.340549 0.424728,2.866915 0,3.623462 -1.791822,5.601102 -1.791821,1.977641 -4.300372,1.977641 -2.495278,0 -3.915462,-2.083823 z m -0.02655,-7.154015 q 0,2.535096 0.690183,3.66328 1.128185,1.844913 3.052734,1.844913 1.566185,0 2.707642,-1.353821 1.141456,-1.367093 1.141456,-4.061462 0,-2.760733 -1.101638,-4.074736 -1.088366,-1.314003 -2.641278,-1.314003 -1.566185,0 -2.707642,1.367094 -1.141457,1.353821 -1.141457,3.928735 z"
             style="font-family:Arial;-inkscape-font-specification:Arial;fill:url(#linearGradient5490)"
             id="path5485" />
        </g>
      </g>
    </g>
  </g>
</svg>
