<?xml version="1.0" encoding="UTF-8" standalone="no"?>
<!-- Created with Inkscape (http://www.inkscape.org/) -->

<svg
   width="250"
   height="122"
   viewBox="0 0 66.145831 32.279167"
   version="1.1"
   id="svg5"
   inkscape:version="1.2.2 (b0a8486541, 2022-12-01)"
   sodipodi:docname="logoab.svg"
   inkscape:export-filename="logoab.png"
   inkscape:export-xdpi="11.667056"
   inkscape:export-ydpi="11.667056"
   xmlns:inkscape="http://www.inkscape.org/namespaces/inkscape"
   xmlns:sodipodi="http://sodipodi.sourceforge.net/DTD/sodipodi-0.dtd"
   xmlns:xlink="http://www.w3.org/1999/xlink"
   xmlns="http://www.w3.org/2000/svg"
   xmlns:svg="http://www.w3.org/2000/svg">
  <sodipodi:namedview
     id="namedview7"
     pagecolor="#ffffff"
     bordercolor="#000000"
     borderopacity="0.25"
     inkscape:showpageshadow="false"
     inkscape:pageopacity="0.0"
     inkscape:pagecheckerboard="0"
     inkscape:deskcolor="#d1d1d1"
     inkscape:document-units="px"
     showgrid="false"
     showborder="false"
     borderlayer="true"
     inkscape:lockguides="false"
     inkscape:zoom="4.025"
     inkscape:cx="125.09317"
     inkscape:cy="97.267081"
     inkscape:window-width="1868"
     inkscape:window-height="1011"
     inkscape:window-x="0"
     inkscape:window-y="0"
     inkscape:window-maximized="1"
     inkscape:current-layer="g7466">
    <sodipodi:guide
       position="0,32.279167"
       orientation="0,200"
       id="guide9"
       inkscape:locked="false" />
    <sodipodi:guide
       position="66.145832,12.054359"
       orientation="200,0"
       id="guide11"
       inkscape:locked="false" />
    <sodipodi:guide
       position="52.916666,-20.637499"
       orientation="0,-200"
       id="guide13"
       inkscape:locked="false" />
    <sodipodi:guide
       position="0,-20.637499"
       orientation="-200,0"
       id="guide15"
       inkscape:locked="false" />
  </sodipodi:namedview>
  <defs
     id="defs2">
    <linearGradient
       id="linearGradient11168">
      <stop
         style="stop-color:#5614b0;stop-opacity:1;"
         offset="0"
         id="stop11164" />
      <stop
         style="stop-color:#dbd65c;stop-opacity:1"
         offset="1"
         id="stop11166" />
    </linearGradient>
    <linearGradient
       id="linearGradient3199">
      <stop
         style="stop-color:#5614b0;stop-opacity:1;"
         offset="0"
         id="stop9680" />
      <stop
         style="stop-color:#dbd65c;stop-opacity:1"
         offset="1"
         id="stop9682" />
    </linearGradient>
    <linearGradient
       id="linearGradient3199-1">
      <stop
         style="stop-color:#ed213a;stop-opacity:1;"
         offset="0"
         id="stop3195" />
      <stop
         style="stop-color:#93291e;stop-opacity:1;"
         offset="1"
         id="stop3197" />
    </linearGradient>
    <linearGradient
       inkscape:collect="always"
       xlink:href="#linearGradient3199"
       id="linearGradient3201"
       x1="6.6424971"
       y1="19.87072"
       x2="32.674767"
       y2="19.385426"
       gradientUnits="userSpaceOnUse" />
    <linearGradient
       inkscape:collect="always"
       xlink:href="#linearGradient11168"
       id="linearGradient7474"
       x1="0.25412863"
       y1="25.68741"
       x2="54.751312"
       y2="25.68741"
       gradientUnits="userSpaceOnUse" />
    <linearGradient
       inkscape:collect="always"
       xlink:href="#linearGradient11168"
       id="linearGradient11270"
       gradientUnits="userSpaceOnUse"
       x1="4.3760156e-06"
       y1="38.696728"
       x2="54.751312"
       y2="15.279047"
       gradientTransform="translate(0,-9.8864545)" />
    <linearGradient
       inkscape:collect="always"
       xlink:href="#linearGradient11168"
       id="linearGradient11299"
       gradientUnits="userSpaceOnUse"
       x1="0.25412863"
       y1="25.68741"
       x2="54.751312"
       y2="25.68741" />
    <linearGradient
       inkscape:collect="always"
       xlink:href="#linearGradient11168"
       id="linearGradient11301"
       gradientUnits="userSpaceOnUse"
       x1="0.25412863"
       y1="25.68741"
       x2="54.751312"
       y2="25.68741" />
    <linearGradient
       inkscape:collect="always"
       xlink:href="#linearGradient11168"
       id="linearGradient11303"
       gradientUnits="userSpaceOnUse"
       x1="0.25412863"
       y1="25.68741"
       x2="54.751312"
       y2="25.68741" />
  </defs>
  <g
     inkscape:label="Camada 1"
     inkscape:groupmode="layer"
     id="layer1">
    <g
       id="g1285"
       transform="matrix(1.1984492,0,0,1.1984492,-5.2444321e-6,-2.7970642)">
      <g
         id="g1005">
        <g
           id="g7466"
           style="fill:url(#linearGradient7474);fill-opacity:1">
          <g
             aria-label="ab"
             id="text1691"
             style="font-size:27.1826px;line-height:0;font-family:Verdana;-inkscape-font-specification:Verdana;letter-spacing:-2.9186px;fill:url(#linearGradient11303);fill-opacity:1;stroke-width:0.364051"
             transform="matrix(1.297549,0,0,1.3410053,-7.8481754,-7.9178735)"
             inkscape:export-filename="./text1691.png"
             inkscape:export-xdpi="11.667056"
             inkscape:export-ydpi="11.667056">
            <path
               d="m 16.251971,25.518277 q -1.327275,1.128184 -2.561642,1.59273 -1.221093,0.464547 -2.628005,0.464547 -2.3227317,0 -3.5703706,-1.128184 -1.2476389,-1.141457 -1.2476389,-2.906733 0,-1.035275 0.4645464,-1.884732 0.4778192,-0.862729 1.2343661,-1.380366 0.7698198,-0.517637 1.725458,-0.783092 0.703456,-0.185819 2.123641,-0.358365 2.89346,-0.345091 4.260554,-0.822911 0.01327,-0.491091 0.01327,-0.623819 0,-1.460003 -0.67691,-2.057277 -0.91582,-0.809638 -2.720915,-0.809638 -1.685639,0 -2.495277,0.597274 -0.7963655,0.584001 -1.1812754,2.083822 L 6.6557699,17.182987 q 0.3185461,-1.499821 1.0485476,-2.415641 0.7300014,-0.929093 2.1103678,-1.420185 1.3803667,-0.504364 3.1987337,-0.504364 1.805095,0 2.933279,0.424728 1.128184,0.424728 1.659094,1.075093 0.53091,0.637092 0.743274,1.619276 0.119455,0.610547 0.119455,2.203277 v 3.185461 q 0,3.331461 0.146,4.220736 0.159273,0.876002 0.610547,1.68564 H 16.72979 Q 16.358153,26.513733 16.251971,25.518277 Z M 16.05288,20.18263 q -1.30073,0.53091 -3.90219,0.902547 -1.473276,0.212364 -2.083822,0.477819 -0.610547,0.265455 -0.9423659,0.783093 -0.3318188,0.504364 -0.3318188,1.128184 0,0.955638 0.7167287,1.59273 0.730001,0.637092 2.123641,0.637092 1.380366,0 2.455459,-0.597274 1.075093,-0.610546 1.579458,-1.659094 0.38491,-0.809638 0.38491,-2.389095 z"
               style="font-family:Arial;-inkscape-font-specification:Arial;fill:url(#linearGradient11299);fill-opacity:1"
               id="path5483" />
            <path
               d="m 21.456298,27.257008 h -2.21655 V 7.7991504 h 2.389096 v 6.9416506 q 1.513093,-1.898004 3.862371,-1.898004 1.30073,0 2.455459,0.53091 1.168003,0.517637 1.911277,1.473276 0.756547,0.942365 1.181275,2.282913 0.424728,1.340549 0.424728,2.866915 0,3.623462 -1.791822,5.601102 -1.791821,1.977641 -4.300372,1.977641 -2.495278,0 -3.915462,-2.083823 z m -0.02655,-7.154015 q 0,2.535096 0.690183,3.66328 1.128185,1.844913 3.052734,1.844913 1.566185,0 2.707642,-1.353821 1.141456,-1.367093 1.141456,-4.061462 0,-2.760733 -1.101638,-4.074736 -1.088366,-1.314003 -2.641278,-1.314003 -1.566185,0 -2.707642,1.367094 -1.141457,1.353821 -1.141457,3.928735 z"
               style="font-family:Arial;-inkscape-font-specification:Arial;fill:url(#linearGradient11301);fill-opacity:1"
               id="path5485" />
          </g>
          <path
             id="path1343"
             d="m 50.7416,5.3925926 -5.109476,0.687053 c 0.480021,0.20984 0.849258,0.366462 1.328302,0.242854 1.179164,-0.304379 2.375859,-0.541749 3.565038,-0.807287 0.0767,-0.01734 0.151858,-0.04267 0.227587,-0.06441 z m 2.921883,0.123575 c -1.780839,0.395009 -3.540739,0.785022 -5.300325,1.175145 l -0.0095,0.05964 c 2.095722,0.5799327 4.191477,1.1596537 6.360485,1.7596177 z m -9.087702,0.934677 c -0.06346,0.0053 -0.138822,0.04053 -0.195619,0.07204 -1.183072,0.6610347 -2.388329,1.2863577 -3.534026,2.0072417 -0.573337,0.360566 -1.040152,0.891857 -1.547777,1.355021 -0.817622,0.7465367 -1.634803,1.4951417 -2.440944,2.2548677 -0.213994,0.201536 -0.409048,0.431841 -0.575406,0.674171 -0.551597,0.802721 -1.085929,1.61665 -1.645587,2.454305 0.313174,0.323921 0.597145,0.633549 0.90128,0.921318 0.06572,0.0623 0.229383,0.09797 0.305356,0.06059 1.345767,-0.661523 2.700419,-1.307942 4.016872,-2.023941 0.428964,-0.233048 0.758773,-0.65191 1.128865,-0.990979 1.224601,-1.122978 2.446648,-2.248047 3.66905,-3.3737137 0.075,-0.06913 0.163553,-0.136082 0.208502,-0.223293 0.43898,-0.858173 0.870054,-1.719971 1.31685,-2.607459 -0.532785,-0.1995807 -1.037686,-0.3961237 -1.54873,-0.5744517 -0.01735,-0.0061 -0.03753,-0.0075 -0.05869,-0.0058 z m 2.413749,0.6202547 c -0.05319,0.0104 -0.09959,0.04633 -0.14075,0.130732 -0.396231,0.812003 -0.805008,1.61828 -1.20759,2.427108 -0.01246,0.02516 -0.01007,0.05794 -0.01956,0.120233 2.430148,-0.368137 4.84441,-0.734066 7.257946,-1.09976 l 0.0014,-0.05105 c -0.78049,-0.206665 -1.56048,-0.414579 -2.341703,-0.619779 -1.122002,-0.294852 -2.245045,-0.586319 -3.366557,-0.884103 -0.06999,-0.01857 -0.130022,-0.03379 -0.183215,-0.02338 z m 7.699758,1.895597 c -0.423833,0.636119 -0.848423,1.2718737 -1.271522,1.9084807 -1.453498,2.186595 -2.906704,4.373067 -4.35849,6.560397 -0.08086,0.122141 -0.185406,0.218895 -0.07157,0.406505 1.403174,2.316555 2.794477,4.640457 4.189588,6.961654 0.220101,0.366673 0.443249,0.731769 0.728085,1.083539 L 54.751312,8.9848273 Z m -0.822076,0.0272 c -2.724023,0.455104 -5.38343,0.898844 -8.077161,1.3488187 l 2.741053,6.667271 c 1.789144,-2.68738 3.542811,-5.321625 5.336108,-8.0160897 z m -8.679286,1.2953807 -4.619951,4.224418 c 2.45311,0.796614 4.858025,1.576909 7.3319,2.379874 -0.918757,-2.238383 -1.80614,-4.398397 -2.711949,-6.604292 z m -5.327996,4.705355 c -1.33624,0.694259 -2.611114,1.35648 -3.920971,2.037302 0.66812,1.737355 1.381121,3.569755 2.079288,5.3738 l 0.06059,-0.01336 c 0.586529,-2.439919 1.181857,-4.862795 1.781088,-7.397741 z m 0.595922,0.09733 c -0.669097,2.828088 -1.335092,5.640188 -2.022511,8.544737 3.224319,-2.0774 6.373991,-4.106793 9.502795,-6.122878 -2.489998,-0.80614 -4.971965,-1.609856 -7.480284,-2.421859 z m -6.138623,0.823508 -1.280112,6.319929 0.04724,0.02243 c 0.03249,-0.05228 0.07196,-0.101268 0.0959,-0.15745 0.699632,-1.622297 1.395344,-3.24579 2.097418,-4.866622 0.07035,-0.162938 0.06501,-0.27295 -0.07252,-0.403643 -0.293875,-0.279706 -0.566686,-0.580945 -0.887921,-0.914638 z m 1.321622,1.923271 -2.56595,6.133851 c 1.644283,-0.04861 3.238702,-0.09596 4.887138,-0.144568 -0.773895,-1.997274 -1.53288,-3.955366 -2.321188,-5.989283 z m 12.84311,0.127868 c -3.156163,2.033917 -6.283346,4.049512 -9.493253,6.117629 4.807043,0.656394 9.528316,1.301205 14.343174,1.958577 -1.640129,-2.731352 -3.238372,-5.392736 -4.849921,-8.076206 z m -10.518583,6.547036 c -0.597288,-0.01411 -1.202018,0.03525 -1.801127,0.04532 -0.656393,0.01123 -1.312923,0.03602 -1.969073,0.05678 -0.06766,0.002 -0.135121,0.01571 -0.202299,0.08827 5.425572,0.501762 10.851614,1.003306 16.276941,1.505312 l 0.01145,-0.07252 -5.218258,-0.71234 c -2.167542,-0.29583 -4.331193,-0.621306 -6.50362,-0.871698 -0.196955,-0.02266 -0.394918,-0.03442 -0.594014,-0.03913 z"
             style="fill:url(#linearGradient11270);fill-opacity:1;stroke-width:0.244285" />
        </g>
      </g>
    </g>
  </g>
</svg>
